<svg viewBox="0 0 488.41943359375 86" fill="none" xmlns="http://www.w3.org/2000/svg">
  <path fill-rule="evenodd" clip-rule="evenodd"
    d="M28.953973945922225 0.10741278190520646C28.257088899423056 0.217675843647296 25.690512264755387 0.8762954521574334 23.250789705087122 1.5712483173763154C11.084271612617547 5.03544438673974 4.074777851872361 13.56498741031518 3.5019223462888625 25.603026695790284C3.061694963256461 34.85974976860366 7.165518024025236 42.14629782832291 15.300451139814362 46.550821287563174C18.937451204585344 48.51999646558342 26.743838515095234 51.296788424535805 32.33366645442841 52.610321752854716C37.24485633736086 53.7641314281202 43.37234558767672 55.79904576224851 45.09056216215135 56.846872919681985C48.97342167159112 59.214732333414624 48.7447093984395 63.66324853590591 44.62613877033089 65.8671349975211C43.10963892201294 66.6787511187488 42.24178207787911 66.79323223470884 37.614545355930545 66.79323223470884C33.060796511912656 66.79323223470884 31.781257576105904 66.62975920012833 28.3203284678464 65.6064280020051C23.72903581680407 64.24915188920363 18.880410613620096 61.90778810492899 14.903341644343334 59.12799664075494L12.155219956134651 57.20706350504974L11.194553421267273 58.19815002204012C10.666465531117058 58.743310096076954 7.839331876194465 62.11575380029746 4.912514664405347 65.69266377712785C0.6414116970122384 70.91230278035441 -0.31250845069408906 72.31282176010147 0.08080367116631748 72.78624366758692C0.702669092401604 73.53611997300209 6.378047919831915 77.49046769022478 8.91450452289874 78.94147834120314C17.89904749272326 84.08163045605569 33.715938444077054 87.09563328628774 43.88001184644279 85.60387935604848C57.416778911797515 83.61695710546675 65.67066740550233 77.7306780667261 69.1450942872593 67.58710128337503C70.13293134025956 64.70282705397982 70.28965548809133 63.55326667777835 70.31990049907641 58.97777142090343C70.35239513897774 54.11182407506437 70.2591605183378 53.447933586003465 69.12809709100323 50.52841517025372C67.11942842756444 45.34052093062308 63.85446699378678 41.87759215221581 57.89270040696768 38.610631048290365C54.82695611166197 36.930908124160375 46.0034115846101 33.951399603977414 41.92533427699391 33.21827053604985C38.36267194996641 32.578376088762234 31.132364613153307 30.40848401965919 29.08970155720237 29.366905831437514C27.262502959674066 28.43430966626951 25.788496101996305 26.376899042978746 25.788496101996305 24.75814106247901C25.788496101996305 24.177261880427565 26.158934996871402 23.09449048716175 26.611860285342168 22.351787998401715C29.07370419602018 18.31472892469174 35.42840596687684 17.833133365477266 44.78886192860598 20.974140245969803C48.4715044644999 22.20941148388022 54.60549264279602 25.288828523821326 56.25747014362565 26.730590700366236C56.972602180223255 27.354987704008604 57.24230769140425 27.02854155238453 63.89221076782601 17.475292392533145C64.65883431072879 16.374348996799434 66.00461232018056 14.47833675031086 66.88321739135867 13.262487308710698L68.48045392189299 11.051327046932974L67.51686286943449 10.2824288792371C59.123497382922444 3.5851336203130995 49.247126523067664 0.29540877134293836 36.769684718496116 0.04024111209503142C33.16802882358703 -0.0332672624546703 29.651108951189865 -0.0032725101885855137 28.953973945922225 0.10741278190520646ZM184.63179437287096 10.394385411635588V20.111057614313786H240.1856305832487H295.738716917321V10.394385411635588V0.6777382048342342H240.1856305832487H184.63179437287096V10.394385411635588ZM82.3956585627139 42.924169515806916V84.7480205328013H93.37634726167677H104.3565360431027L104.4660179836933 61.06042787980984L104.57500000674698 37.37283522681838L112.98111339045109 50.60440263586913C124.27999960167844 68.38896901263234 125.03412520615764 69.53977918267616 125.39006649246137 69.53627975991755C125.74750753137593 69.53278033715895 125.93047734989725 69.25707581553463 132.23868678981816 59.18898658026204C134.85975443601268 55.00642650742468 137.61455002333955 50.63389777054879 138.3609269059961 49.472339373460684C139.10755374742115 48.31053101760411 141.22145505238655 44.98607939693017 143.05840204188522 42.0845580125104L146.39885102374137 36.80942816268312L146.50783304679504 60.77872434774221L146.61731498738564 84.7480205328013H158.01993408752878H169.42305310520885V42.924169515806916V1.1002010181913502L157.27730658639928 1.1082271942469772L145.1315600675897 1.1162558698902891L139.52823435475906 10.508041663659679C136.44674265703964 15.673489605881565 132.59787754011202 22.086056831639425 130.97514521519358 24.75814106247901C129.35241289027516 27.430225293318593 127.6059509749632 30.42423142207291 127.09403541713311 31.411818516304695C126.5823698180715 32.399655569304954 126.02521172314803 33.20752230900557 125.8557396781242 33.20752230900557C125.55353952704189 33.20752230900557 115.85988852693993 17.352787600105152 112.16524797015937 10.816865722106495C110.73098455666862 8.279534263350019 107.98468756746976 3.7029891796475174 107.0323446595925 2.2632416707764924L106.26472128161583 1.1027356001036535L94.33018992216486 1.101468309147502L82.3956585627139 1.1002010181913502V42.924169515806916ZM310.9487079788255 42.924169515806916V84.7480205328013H322.144361218674H333.34001445852255V62.14624877005102C333.34001445852255 49.71504933764673 333.4974884826598 39.54447700730073 333.6924563220677 39.54447700730073C333.88992374916035 39.54447700730073 335.369679658513 41.30268698473084 336.9819137151556 43.4520824348192C341.4086835047898 49.34636015415094 353.8216359470957 65.73315709762026 358.0259424327901 71.22900054000807C360.06810557120406 73.90105977497082 363.19259017710067 78.03212834150301 364.9672974332499 80.4092362296691L368.1917655465351 84.73052341900828L378.22511051299017 84.73952193467326L388.25845547944516 84.7480205328013V42.924169515806916V1.1002010181913502H377.06280223959664H365.86964858743283V22.857054652990456C365.86964858743283 34.82325578840679 365.72717208940395 44.61389079067578 365.5522009514737 44.61339087313883C365.3772298135435 44.61339087313883 363.90997184261454 42.85518089570872 362.2902390229177 40.70578544562036C360.67050620322095 38.55663995430047 359.24074204756266 36.70319568608263 359.1132630756421 36.58721481751175C358.98828369140625 36.4709839901724 355.7363201135891 32.19343958531577 351.8869550791245 27.081782770069008C343.0259167368019 15.310174535907912 334.2398660250208 3.7135624355538717 333.0675594008884 2.2387407122908938L332.160209071336 1.1002010181913502H321.55445852508075H310.9487079788255V42.924169515806916ZM431.25636283195126 2.8956723492375414C430.8714263285048 3.8833844228535614 429.6716242398405 6.782331231958083 428.589302772358 9.338234627212008C427.5094808925601 11.894138022465935 426.06471921079356 15.411132882493641 425.379832185181 17.15379542452481C424.6949451595685 18.89645796655598 423.87258081129653 20.892603695694326 423.55263358765274 21.589663713331426C423.23268636400894 22.28672373096853 422.595291504406 23.807597857734734 422.135367370418 24.969381217714464C419.8682413403795 30.713183758426226 418.1960171793036 34.76126601382581 417.80108232511833 35.45290192618707C417.5636214950702 35.874832327367336 416.8162447773397 37.680784429575546 416.14385569015076 39.466239912769076C415.47146660296187 41.25194535473108 414.0367032719342 44.80410941348276 412.95688139213627 47.35993782110614C411.87705951233846 49.915766228729524 409.7574091556982 55.04866953929639 408.2501577818137 58.76630630277636C406.7404068202445 62.48419302502479 405.250652560153 66.09609722944121 404.93570451187867 66.79323223470884C404.62075646360427 67.49036723997648 402.91603766262716 71.57769302202612 401.1463295818473 75.87623396343437C399.3766215010675 80.17477490484264 397.8243775488581 83.92965552482488 397.6968985769375 84.21985765502055C397.5119290882684 84.63553908698903 400.0240147114092 84.7480205328013 409.4874536857488 84.7480205328013H421.51297003692343L422.80525686992223 81.26259546523157C425.59979590143615 73.72633859580908 426.89208273443495 70.58235720597172 427.3170126408369 70.28490627149037C427.55947264625445 70.11418443262417 434.62830661863484 69.97195789336378 443.0219220639154 69.96795855306823C454.74498830523925 69.96345929523572 458.3768892111334 70.08418938040757 458.68433849635363 70.48987246163718C458.901802624924 70.78032455060134 460.2965725529962 74.10727575895999 461.7788280500336 77.88290295672539L464.4758831618435 84.7480205328013H476.40891476868364H488.33944678783905L485.99733312725897 79.15019391287703C483.5827314238221 73.36939747443145 480.7332014632444 66.45478806219813 478.64854533419026 61.301138173848116C477.9886541854249 59.6746564674026 476.57388755587493 56.25272092702469 475.50406402681597 53.69689251940131C474.4317409100723 51.14106411177792 473.001976754414 47.588900053026244 472.3295876672251 45.80319461106424C471.6546989923514 44.01773912787071 470.9098218623057 42.2117870256625 470.6723610322575 41.78985662448223C470.4349002022094 41.36817618207043 469.5450469864501 39.312015352622026 468.69268758596144 37.22086029558757C467.84282777315764 35.12970523855313 466.67552032439465 32.27792564905922 466.1056143322791 30.88390559729241C465.53320875247886 29.48963558675713 464.33590625149935 26.54312162401244 463.44355344805524 24.33568574788495C462.5512006446112 22.128299863511145 460.94146617565326 18.2310927207611 459.8691430589096 15.675189325507173C458.79432035448116 13.119285930253245 457.4645397062116 9.887444033298083 456.91713000325853 8.493299002147038C456.36972030030546 7.099178966872841 455.4323749185365 4.865197469533649 454.8349734618891 3.529367819067058L453.7501524067218 1.1002010181913502H442.8519501013546H431.95374779598734L431.25636283195126 2.8956723492375414ZM442.3470333890417 29.933312400794442C442.132068848156 30.455976185668817 441.07974243289004 33.16527927713384 440.00741931614635 35.95331938066746C438.93509619940266 38.74160944296955 437.6778035939899 41.97357631930895 437.2128802846325 43.135384675165525C436.74795697527503 44.29694307225363 435.8231095319297 46.72079325012394 435.1557196201102 48.52174617696272L433.94341959302227 51.79570612640537H443.0419187653931C451.54051689343174 51.79570612640537 452.1204212362861 51.746714207784905 451.8404674155978 51.056578048034474C451.67549462840645 50.649645172962515 451.2030725559949 49.366606814397144 450.78814100033185 48.20479845854057C450.37320944466876 47.042990102683994 448.586004250096 42.437499793592465 446.8162961693161 37.969736765928864C445.04908767622106 33.50222369703373 443.60182640676976 29.652358745032224 443.60182640676976 29.414897914984085C443.60182640676976 28.617779402327756 442.741968243227 28.972720853557604 442.3470333890417 29.933312400794442ZM184.63179437287096 42.924169515806916V52.64081672260827H240.1856305832487H295.738716917321V42.924169515806916V33.20752230900557H240.1856305832487H184.63179437287096V42.924169515806916ZM184.63179437287096 75.03137332599995V84.7480205328013H240.1856305832487H295.738716917321V75.03137332599995V65.3147261191986H240.1856305832487H184.63179437287096V75.03137332599995Z"
    fill="#ffd95c"></path>
</svg>